<svg xmlns="http://www.w3.org/2000/svg" viewBox="0 0 128 128"><g stroke-width="2" fill="none"><path stroke="#50275f" vector-effect="non-scaling-stroke" d="M44.24 23.12c-7.97.23-21.64 5.76-21.72 15.44q-.12 14.23.04 29.48.04 2.97 2.94 2.95l18.92-.11a.52.51 90 0 0 .51-.52l.04-46.52a.71.71-.4 0 0-.73-.72"/><path stroke="#727272" vector-effect="non-scaling-stroke" d="M103.8909 23.6604a.46.46 0 0 0-.4608-.4592l-55.9599.0977a.46.46 0 0 0-.4592.4608l.0381 21.7999a.46.46 0 0 0 .4608.4592l55.9599-.0977a.46.46 0 0 0 .4592-.4608l-.0381-21.7999M82.94 71.56l.35 30.43a.54.53 2.3 0 0 .5.53c10.63.79 19.86-5.2 20.08-16.26q.31-15.11-.02-30.3a.59.58-86.6 0 0-.5-.57q-4.2-.61-6.43-.61l-49.27-.06a.52.52-89.4 0 0-.52.51l-.08 15.05a.51.48 1.2 0 0 .5.49l34.89.28a.51.5 90 0 1 .5.51"/><path stroke="#50275f" vector-effect="non-scaling-stroke" d="M24.82 102.28q2 .54 4.01.56 25.69.24 51.53.09a.52.51.6 0 0 .52-.5l.33-20.89a.51.51-89.4 0 0-.51-.52l-57.03.03a.54.52-.6 0 0-.53.52l.04 18.68a2.21 2.07 8 0 0 1.64 2.03"/></g><path d="M13.81 0h100.25Q126.35 1.98 128 14.31v99.5q-1.79 12.32-14.06 14.19H13.69Q1.77 125.9 0 113.94v-100Q1.86 2.01 13.81 0Zm30.43 23.12c-7.97.23-21.64 5.76-21.72 15.44q-.12 14.23.04 29.48.04 2.97 2.94 2.95l18.92-.11a.52.51 90 0 0 .51-.52l.04-46.52a.71.71-.4 0 0-.73-.72Zm59.6509.5404a.46.46 0 0 0-.4608-.4592l-55.9599.0977a.46.46 0 0 0-.4592.4608l.0381 21.7999a.46.46 0 0 0 .4608.4592l55.9599-.0977a.46.46 0 0 0 .4592-.4608l-.0381-21.7999ZM82.94 71.56l.35 30.43a.54.53 2.3 0 0 .5.53c10.63.79 19.86-5.2 20.08-16.26q.31-15.11-.02-30.3a.59.58-86.6 0 0-.5-.57q-4.2-.61-6.43-.61l-49.27-.06a.52.52-89.4 0 0-.52.51l-.08 15.05a.51.48 1.2 0 0 .5.49l34.89.28a.51.5 90 0 1 .5.51Zm-58.12 30.72q2 .54 4.01.56 25.69.24 51.53.09a.52.51.6 0 0 .52-.5l.33-20.89a.51.51-89.4 0 0-.51-.52l-57.03.03a.54.52-.6 0 0-.53.52l.04 18.68a2.21 2.07 8 0 0 1.64 2.03Z"/><path fill="#a04dbd" d="M22.52 38.56c.08-9.68 13.75-15.21 21.72-15.44a.71.71-.4 0 1 .73.72l-.04 46.52a.52.51 90 0 1-.51.52l-18.92.11q-2.9.02-2.94-2.95-.16-15.25-.04-29.48Z"/><rect fill="#e3e3e3" x="-28.44" y="-11.36" transform="rotate(-.1 19867.7993 -43223.8088)" width="56.88" height="22.72" rx=".46"/><path fill="#e3e3e3" d="m82.44 71.05-34.89-.28a.51.48 1.2 0 1-.5-.49l.08-15.05a.52.52-89.4 0 1 .52-.51l49.27.06q2.23 0 6.43.61a.59.58-86.6 0 1 .5.57q.33 15.19.02 30.3c-.22 11.06-9.45 17.05-20.08 16.26a.54.53 2.3 0 1-.5-.53l-.35-30.43a.51.5 90 0 0-.5-.51Z"/><path fill="#a04dbd" d="M24.82 102.28a2.21 2.07 8 0 1-1.64-2.03l-.04-18.68a.54.52-.6 0 1 .53-.52l57.03-.03a.51.51-89.4 0 1 .51.52l-.33 20.89a.52.51.6 0 1-.52.5q-25.84.15-51.53-.09-2.01-.02-4.01-.56Z"/></svg>